0
SECTION
2
HEADER
9
$INSUNITS
70
4
9
$ACADVER
1
AC1014
9
$HANDSEED
5
FFFF
0
ENDSEC
0
SECTION
2
TABLES
0
TABLE
2
VPORT
5
8
100
AcDbSymbolTable
0
ENDTAB
0
TABLE
2
LTYPE
5
5
100
AcDbSymbolTable
0
LTYPE
5
14
100
AcDbSymbolTableRecord
100
AcDbLinetypeTableRecord
2
BYBLOCK
70
0
0
LTYPE
5
15
100
AcDbSymbolTableRecord
100
AcDbLinetypeTableRecord
2
BYLAYER
70
0
0
ENDTAB
0
TABLE
2
LAYER
5
2
100
AcDbSymbolTable
70
2
0
LAYER
5
50
100
AcDbSymbolTableRecord
100
AcDbLayerTableRecord
2
0
70
0
6
CONTINUOUS
0
ENDTAB
0
TABLE
2
STYLE
5
3
100
AcDbSymbolTable
70
1
0
STYLE
5
11
100
AcDbSymbolTableRecord
100
AcDbTextStyleTableRecord
2
STANDARD
70
0
0
ENDTAB
0
TABLE
2
VIEW
5
6
100
AcDbSymbolTable
70
0
0
ENDTAB
0
TABLE
2
UCS
5
7
100
AcDbSymbolTable
70
0
0
ENDTAB
0
TABLE
2
APPID
5
9
100
AcDbSymbolTable
70
2
0
APPID
5
12
100
AcDbSymbolTableRecord
100
AcDbRegAppTableRecord
2
ACAD
70
0
0
ENDTAB
0
TABLE
2
DIMSTYLE
5
A
100
AcDbSymbolTable
70
1
0
ENDTAB
0
TABLE
2
BLOCK_RECORD
5
1
100
AcDbSymbolTable
70
1
0
BLOCK_RECORD
5
1F
100
AcDbSymbolTableRecord
100
AcDbBlockTableRecord
2
*MODEL_SPACE
0
BLOCK_RECORD
5
1B
100
AcDbSymbolTableRecord
100
AcDbBlockTableRecord
2
*PAPER_SPACE
0
ENDTAB
0
ENDSEC
0
SECTION
2
BLOCKS
0
BLOCK
5
20
100
AcDbEntity
100
AcDbBlockBegin
2
*MODEL_SPACE
0
ENDBLK
5
21
100
AcDbEntity
100
AcDbBlockEnd
0
BLOCK
5
1C
100
AcDbEntity
100
AcDbBlockBegin
2
*PAPER_SPACE
0
ENDBLK
5
1D
100
AcDbEntity
100
AcDbBlockEnd
0
ENDSEC
0
SECTION
2
ENTITIES
0
LINE
5
100
100
AcDbEntity
8
0
100
AcDbLine
10
142.82432786889999
20
213.42914754100002
30
0
11
142.82432786889999
21
153.42914754100002
31
0
0
LINE
5
101
100
AcDbEntity
8
0
100
AcDbLine
10
147.82432786889999
20
153.42914754100002
30
0
11
147.82432786889999
21
213.42914754100002
31
0
0
LINE
5
102
100
AcDbEntity
8
0
100
AcDbLine
10
125.3243278689
20
175.42914754099999
30
0
11
65.324327868899999
21
175.42914754099999
31
0
0
LINE
5
103
100
AcDbEntity
8
0
100
AcDbLine
10
65.324327868899999
20
170.42914754099999
30
0
11
125.3243278689
21
170.42914754099999
31
0
0
LWPOLYLINE
5
104
100
AcDbEntity
8
0
100
AcDbPolyline
90
6
70
1
43
0.0
10
140.32432786889999
20
148.42914754100002
10
140.32432786889999
20
153.42914754100002
10
147.32432786889999
20
153.42914754100002
10
152.32432786889999
20
153.42914754100002
10
152.32432786889999
20
148.42914754100002
10
147.32432786889999
20
148.42914754100002
0
LINE
5
105
100
AcDbEntity
8
0
100
AcDbLine
10
147.32432786889999
20
153.42914754100002
30
0
11
147.32432786889999
21
148.42914754100002
31
0
0
LWPOLYLINE
5
106
100
AcDbEntity
8
0
100
AcDbPolyline
90
2
70
1
43
0.0
10
148.82432786890001
20
150.92914754100002
42
0.99999999999999989
10
150.82432786889999
20
150.92914754100002
42
0.99999999999999989
0
LWPOLYLINE
5
107
100
AcDbEntity
8
0
100
AcDbPolyline
90
6
70
1
43
0.0
10
125.3243278689
20
177.92914754099999
10
130.32432786889999
20
177.92914754099999
10
130.32432786889999
20
170.92914754100002
10
130.32432786889999
20
165.92914754100002
10
125.3243278689
20
165.92914754100002
10
125.3243278689
20
170.92914754100002
0
LINE
5
108
100
AcDbEntity
8
0
100
AcDbLine
10
130.32432786889999
20
170.92914754100002
30
0
11
125.3243278689
21
170.92914754100002
31
0
0
LWPOLYLINE
5
109
100
AcDbEntity
8
0
100
AcDbPolyline
90
2
70
1
43
0.0
10
127.8243278689
20
167.42914754099999
42
0.99999999999999989
10
127.8243278689
20
169.42914754100002
42
0.99999999999999989
0
LWPOLYLINE
5
110
100
AcDbEntity
8
0
100
AcDbPolyline
90
6
70
1
43
0.0
10
60.324327868900014
20
177.92914754099999
10
65.324327868899999
20
177.92914754099999
10
65.324327868899999
20
170.92914754100002
10
65.324327868899999
20
165.92914754100002
10
60.324327868900014
20
165.92914754100002
10
60.324327868900014
20
170.92914754100002
0
LINE
5
111
100
AcDbEntity
8
0
100
AcDbLine
10
65.324327868899999
20
170.92914754100002
30
0
11
60.324327868900014
21
170.92914754100002
31
0
0
LWPOLYLINE
5
112
100
AcDbEntity
8
0
100
AcDbPolyline
90
2
70
1
43
0.0
10
62.824327868900014
20
167.42914754099999
42
0.99999999999999989
10
62.824327868900014
20
169.42914754100002
42
0.99999999999999989
0
LWPOLYLINE
5
113
100
AcDbEntity
8
0
100
AcDbPolyline
90
4
70
1
43
0.0
10
147.32432786889999
20
213.42914754100002
10
140.32432786889999
20
213.42914754100002
10
140.32432786889999
20
218.42914754100002
10
147.32432786889999
20
218.42914754100002
0
LINE
5
114
100
AcDbEntity
8
0
100
AcDbLine
10
152.32432786889999
20
218.42914754100002
30
0
11
152.32432786889999
21
213.42914754100002
31
0
0
LWPOLYLINE
5
115
100
AcDbEntity
8
0
100
AcDbPolyline
90
2
70
1
43
0.0
10
150.82432786889999
20
215.92914754100002
42
0.99999999999999989
10
148.82432786890001
20
215.92914754100002
42
0.99999999999999989
0
LINE
5
116
100
AcDbEntity
8
0
100
AcDbLine
10
152.32432786889999
20
213.42914754100002
30
0
11
147.32432786889999
21
213.42914754100002
31
0
0
LINE
5
117
100
AcDbEntity
8
0
100
AcDbLine
10
152.32432786889999
20
218.42914754100002
30
0
11
147.32432786889999
21
218.42914754100002
31
0
0
ARC
5
118
100
AcDbEntity
8
0
100
AcDbCircle
10
151.1243278689
20
193.62914754100001
30
0
40
1.1999999999999744
210
0
220
0
230
1
100
AcDbArc
50
-90
51
0
0
LINE
5
119
100
AcDbEntity
8
0
100
AcDbLine
10
151.1243278689
20
192.42914754100002
30
0
11
151.0243278689
21
192.42914754099999
31
0
0
ARC
5
120
100
AcDbEntity
8
0
100
AcDbCircle
10
151.0243278689
20
191.22914754099997
30
0
40
1.2000000000000099
210
0
220
-0
230
1
100
AcDbArc
50
90
51
180
0
LINE
5
121
100
AcDbEntity
8
0
100
AcDbLine
10
149.82432786889999
20
175.62914754100001
30
0
11
149.82432786889999
21
191.22914754099997
31
0
0
ARC
5
122
100
AcDbEntity
8
0
100
AcDbCircle
10
151.0243278689
20
175.62914754100001
30
0
40
1.2000000000000099
210
0
220
0
230
1
100
AcDbArc
50
180
51
270
0
LINE
5
123
100
AcDbEntity
8
0
100
AcDbLine
10
151.1243278689
20
174.42914754099999
30
0
11
151.0243278689
21
174.42914754099999
31
0
0
ARC
5
124
100
AcDbEntity
8
0
100
AcDbCircle
10
151.1243278689
20
173.22914754099997
30
0
40
1.1999999999999922
210
0
220
0
230
1
100
AcDbArc
50
0
51
90
0
LINE
5
125
100
AcDbEntity
8
0
100
AcDbLine
10
152.32432786889999
20
173.22914754099997
30
0
11
152.32432786889999
21
153.42914754100002
31
0
0
LINE
5
126
100
AcDbEntity
8
0
100
AcDbLine
10
152.32432786889999
20
148.42914754100002
30
0
11
152.32432786889999
21
138.62914754100001
31
0
0
ARC
5
127
100
AcDbEntity
8
0
100
AcDbCircle
10
151.1243278689
20
138.62914754100001
30
0
40
1.1999999999999922
210
0
220
0
230
1
100
AcDbArc
50
-90
51
0
0
LINE
5
128
100
AcDbEntity
8
0
100
AcDbLine
10
151.1243278689
20
137.42914754100002
30
0
11
116.5243278689
21
137.42914754099999
31
0
0
ARC
5
129
100
AcDbEntity
8
0
100
AcDbCircle
10
116.5243278689
20
138.62914754100001
30
0
40
1.2000000000000099
210
0
220
0
230
1
100
AcDbArc
50
180
51
270
0
LINE
5
130
100
AcDbEntity
8
0
100
AcDbLine
10
115.32432786889999
20
138.62914754100001
30
0
11
115.3243278689
21
138.72914754100003
31
0
0
ARC
5
131
100
AcDbEntity
8
0
100
AcDbCircle
10
114.12432786890001
20
138.72914754100003
30
0
40
1.1999999999999922
210
0
220
0
230
1
100
AcDbArc
50
0
51
90
0
LINE
5
132
100
AcDbEntity
8
0
100
AcDbLine
10
98.524327868899988
20
139.92914754099999
30
0
11
114.12432786890001
21
139.92914754100002
31
0
0
ARC
5
133
100
AcDbEntity
8
0
100
AcDbCircle
10
98.524327868899988
20
138.72914754100003
30
0
40
1.1999999999999744
210
0
220
-0
230
1
100
AcDbArc
50
90
51
180
0
LINE
5
134
100
AcDbEntity
8
0
100
AcDbLine
10
97.324327868900014
20
138.62914754100001
30
0
11
97.324327868899985
21
138.72914754100003
31
0
0
ARC
5
135
100
AcDbEntity
8
0
100
AcDbCircle
10
96.124327868899996
20
138.62914754100001
30
0
40
1.2000000000000099
210
0
220
0
230
1
100
AcDbArc
50
-90
51
0
0
LINE
5
136
100
AcDbEntity
8
0
100
AcDbLine
10
96.124327868899996
20
137.42914754100002
30
0
11
61.524327868900002
21
137.42914754099999
31
0
0
ARC
5
137
100
AcDbEntity
8
0
100
AcDbCircle
10
61.524327868900002
20
138.62914754100001
30
0
40
1.2000000000000011
210
0
220
0
230
1
100
AcDbArc
50
180
51
270
0
LINE
5
138
100
AcDbEntity
8
0
100
AcDbLine
10
60.324327868900014
20
165.92914754100002
30
0
11
60.324327868899999
21
138.62914754100001
31
0
0
ARC
5
139
100
AcDbEntity
8
0
100
AcDbCircle
10
61.624327868900011
20
191.22914754099997
30
0
40
1.2000000000000011
210
0
220
0
230
1
100
AcDbArc
50
0
51
90
0
LINE
5
140
100
AcDbEntity
8
0
100
AcDbLine
10
61.524327868900002
20
192.42914754099999
30
0
11
61.624327868900011
21
192.42914754099999
31
0
0
ARC
5
141
100
AcDbEntity
8
0
100
AcDbCircle
10
61.524327868900002
20
193.62914754100001
30
0
40
1.2000000000000011
210
0
220
0
230
1
100
AcDbArc
50
180
51
270
0
LINE
5
142
100
AcDbEntity
8
0
100
AcDbLine
10
60.324327868900014
20
228.22914754099997
30
0
11
60.324327868899999
21
193.62914754100001
31
0
0
ARC
5
143
100
AcDbEntity
8
0
100
AcDbCircle
10
61.524327868900002
20
228.22914754099997
30
0
40
1.2000000000000099
210
0
220
-0
230
1
100
AcDbArc
50
90
51
180
0
LINE
5
144
100
AcDbEntity
8
0
100
AcDbLine
10
96.124327868899996
20
229.42914754100002
30
0
11
61.524327868900002
21
229.42914754099999
31
0
0
ARC
5
145
100
AcDbEntity
8
0
100
AcDbCircle
10
96.124327868899996
20
228.22914754099997
30
0
40
1.2000000000000099
210
0
220
0
230
1
100
AcDbArc
50
0
51
90
0
LINE
5
146
100
AcDbEntity
8
0
100
AcDbLine
10
97.324327868900014
20
228.22914754099997
30
0
11
97.324327868900014
21
228.12914754100001
31
0
0
ARC
5
147
100
AcDbEntity
8
0
100
AcDbCircle
10
98.524327868899988
20
228.12914754100001
30
0
40
1.1999999999999744
210
0
220
0
230
1
100
AcDbArc
50
180
51
270
0
LINE
5
148
100
AcDbEntity
8
0
100
AcDbLine
10
114.12432786890001
20
226.92914754100002
30
0
11
98.524327868899988
21
226.92914754099999
31
0
0
ARC
5
149
100
AcDbEntity
8
0
100
AcDbCircle
10
114.12432786890001
20
228.12914754100001
30
0
40
1.1999999999999744
210
0
220
0
230
1
100
AcDbArc
50
-90
51
0
0
LINE
5
150
100
AcDbEntity
8
0
100
AcDbLine
10
115.3243278689
20
228.22914754099997
30
0
11
115.3243278689
21
228.12914754100001
31
0
0
ARC
5
151
100
AcDbEntity
8
0
100
AcDbCircle
10
116.5243278689
20
228.22914754099997
30
0
40
1.2000000000000099
210
0
220
-0
230
1
100
AcDbArc
50
90
51
180
0
LINE
5
152
100
AcDbEntity
8
0
100
AcDbLine
10
151.1243278689
20
229.42914754100002
30
0
11
116.5243278689
21
229.42914754099999
31
0
0
LINE
5
153
100
AcDbEntity
8
0
100
AcDbLine
10
152.32432786889999
20
228.22914754099997
30
0
11
152.32432786889999
21
218.42914754100002
31
0
0
LINE
5
154
100
AcDbEntity
8
0
100
AcDbLine
10
152.32432786889999
20
213.42914754100002
30
0
11
152.32432786889999
21
193.62914754100001
31
0
0
CIRCLE
5
155
100
AcDbEntity
8
0
100
AcDbCircle
10
146.32432786890001
20
223.42914754100002
30
0
40
1.589999999999975
210
0
220
0
230
1
0
CIRCLE
5
156
100
AcDbEntity
8
0
100
AcDbCircle
10
66.324327868899999
20
223.42914754100002
30
0
40
1.5900000000000034
210
0
220
0
230
1
0
CIRCLE
5
157
100
AcDbEntity
8
0
100
AcDbCircle
10
66.324327868899999
20
143.42914754100002
30
0
40
1.5900000000000034
210
0
220
0
230
1
0
CIRCLE
5
158
100
AcDbEntity
8
0
100
AcDbCircle
10
146.32432786890001
20
143.42914754100002
30
0
40
1.589999999999975
210
0
220
0
230
1
0
CIRCLE
5
159
100
AcDbEntity
8
0
100
AcDbCircle
10
138.07432786889999
20
224.77914754099999
30
0
40
0.51000000000001933
210
0
220
0
230
1
0
CIRCLE
5
160
100
AcDbEntity
8
0
100
AcDbCircle
10
135.53432786889999
20
224.77914754099999
30
0
40
0.51000000000001933
210
0
220
0
230
1
0
CIRCLE
5
161
100
AcDbEntity
8
0
100
AcDbCircle
10
132.99432786890003
20
224.77914754099999
30
0
40
0.50999999999999091
210
0
220
0
230
1
0
CIRCLE
5
162
100
AcDbEntity
8
0
100
AcDbCircle
10
130.45432786889998
20
224.77914754099999
30
0
40
0.51000000000001933
210
0
220
0
230
1
0
CIRCLE
5
163
100
AcDbEntity
8
0
100
AcDbCircle
10
127.91432786889999
20
224.77914754099999
30
0
40
0.51000000000000512
210
0
220
0
230
1
0
CIRCLE
5
164
100
AcDbEntity
8
0
100
AcDbCircle
10
125.37432786890001
20
224.77914754099999
30
0
40
0.51000000000000512
210
0
220
0
230
1
0
CIRCLE
5
165
100
AcDbEntity
8
0
100
AcDbCircle
10
122.8343278689
20
224.77914754099999
30
0
40
0.50999999999999091
210
0
220
0
230
1
0
CIRCLE
5
166
100
AcDbEntity
8
0
100
AcDbCircle
10
120.2943278689
20
224.77914754099999
30
0
40
0.51000000000000512
210
0
220
0
230
1
0
CIRCLE
5
167
100
AcDbEntity
8
0
100
AcDbCircle
10
117.75432786890001
20
224.77914754099999
30
0
40
0.50999999999999091
210
0
220
0
230
1
0
CIRCLE
5
168
100
AcDbEntity
8
0
100
AcDbCircle
10
115.21432786890001
20
224.77914754099999
30
0
40
0.50999999999999091
210
0
220
0
230
1
0
CIRCLE
5
169
100
AcDbEntity
8
0
100
AcDbCircle
10
112.67432786889999
20
224.77914754099999
30
0
40
0.51000000000001933
210
0
220
0
230
1
0
CIRCLE
5
170
100
AcDbEntity
8
0
100
AcDbCircle
10
110.1343278689
20
224.77914754099999
30
0
40
0.50999999999999091
210
0
220
0
230
1
0
CIRCLE
5
171
100
AcDbEntity
8
0
100
AcDbCircle
10
107.59432786890001
20
224.77914754099999
30
0
40
0.51000000000001933
210
0
220
0
230
1
0
CIRCLE
5
172
100
AcDbEntity
8
0
100
AcDbCircle
10
105.05432786889999
20
224.77914754099999
30
0
40
0.50999999999997669
210
0
220
0
230
1
0
CIRCLE
5
173
100
AcDbEntity
8
0
100
AcDbCircle
10
102.5143278689
20
224.77914754099999
30
0
40
0.51000000000000512
210
0
220
0
230
1
0
CIRCLE
5
174
100
AcDbEntity
8
0
100
AcDbCircle
10
99.974327868900005
20
224.77914754099999
30
0
40
0.50999999999999091
210
0
220
0
230
1
0
CIRCLE
5
175
100
AcDbEntity
8
0
100
AcDbCircle
10
97.434327868899999
20
224.77914754099999
30
0
40
0.51000000000000512
210
0
220
0
230
1
0
CIRCLE
5
176
100
AcDbEntity
8
0
100
AcDbCircle
10
94.894327868899992
20
224.77914754099999
30
0
40
0.50999999999999091
210
0
220
0
230
1
0
CIRCLE
5
177
100
AcDbEntity
8
0
100
AcDbCircle
10
92.3543278689
20
224.77914754099999
30
0
40
0.51000000000000512
210
0
220
0
230
1
0
CIRCLE
5
178
100
AcDbEntity
8
0
100
AcDbCircle
10
89.814327868899994
20
224.77914754099999
30
0
40
0.50999999999997669
210
0
220
0
230
1
0
CIRCLE
5
179
100
AcDbEntity
8
0
100
AcDbCircle
10
87.274327868899988
20
224.77914754099999
30
0
40
0.51000000000001933
210
0
220
0
230
1
0
CIRCLE
5
180
100
AcDbEntity
8
0
100
AcDbCircle
10
84.73432786890001
20
224.77914754099999
30
0
40
0.50999999999997669
210
0
220
0
230
1
0
CIRCLE
5
181
100
AcDbEntity
8
0
100
AcDbCircle
10
82.194327868900018
20
224.77914754099999
30
0
40
0.51000000000001933
210
0
220
0
230
1
0
CIRCLE
5
182
100
AcDbEntity
8
0
100
AcDbCircle
10
79.654327868899998
20
224.77914754099999
30
0
40
0.50999999999997669
210
0
220
0
230
1
0
CIRCLE
5
183
100
AcDbEntity
8
0
100
AcDbCircle
10
77.114327868900006
20
224.77914754099999
30
0
40
0.50999999999997669
210
0
220
0
230
1
0
CIRCLE
5
184
100
AcDbEntity
8
0
100
AcDbCircle
10
74.574327868899999
20
224.77914754099999
30
0
40
0.51000000000001933
210
0
220
0
230
1
0
CIRCLE
5
185
100
AcDbEntity
8
0
100
AcDbCircle
10
132.99432786890003
20
222.23914754100002
30
0
40
0.50999999999999091
210
0
220
0
230
1
0
CIRCLE
5
186
100
AcDbEntity
8
0
100
AcDbCircle
10
130.45432786889998
20
222.23914754100002
30
0
40
0.51000000000001933
210
0
220
0
230
1
0
CIRCLE
5
187
100
AcDbEntity
8
0
100
AcDbCircle
10
127.91432786889999
20
222.23914754100002
30
0
40
0.51000000000000512
210
0
220
0
230
1
0
CIRCLE
5
188
100
AcDbEntity
8
0
100
AcDbCircle
10
125.37432786890001
20
222.23914754100002
30
0
40
0.51000000000000512
210
0
220
0
230
1
0
CIRCLE
5
189
100
AcDbEntity
8
0
100
AcDbCircle
10
122.8343278689
20
222.23914754100002
30
0
40
0.50999999999999091
210
0
220
0
230
1
0
CIRCLE
5
190
100
AcDbEntity
8
0
100
AcDbCircle
10
120.2943278689
20
222.23914754100002
30
0
40
0.51000000000000512
210
0
220
0
230
1
0
CIRCLE
5
191
100
AcDbEntity
8
0
100
AcDbCircle
10
117.75432786890001
20
222.23914754100002
30
0
40
0.50999999999999091
210
0
220
0
230
1
0
CIRCLE
5
192
100
AcDbEntity
8
0
100
AcDbCircle
10
115.21432786890001
20
222.23914754100002
30
0
40
0.50999999999999091
210
0
220
0
230
1
0
CIRCLE
5
193
100
AcDbEntity
8
0
100
AcDbCircle
10
110.1343278689
20
222.23914754100002
30
0
40
0.50999999999999091
210
0
220
0
230
1
0
CIRCLE
5
194
100
AcDbEntity
8
0
100
AcDbCircle
10
107.59432786890001
20
222.23914754100002
30
0
40
0.51000000000001933
210
0
220
0
230
1
0
CIRCLE
5
195
100
AcDbEntity
8
0
100
AcDbCircle
10
105.05432786889999
20
222.23914754100002
30
0
40
0.50999999999999091
210
0
220
0
230
1
0
CIRCLE
5
196
100
AcDbEntity
8
0
100
AcDbCircle
10
102.5143278689
20
222.23914754100002
30
0
40
0.51000000000000512
210
0
220
0
230
1
0
CIRCLE
5
197
100
AcDbEntity
8
0
100
AcDbCircle
10
99.974327868900005
20
222.23914754100002
30
0
40
0.50999999999999091
210
0
220
0
230
1
0
CIRCLE
5
198
100
AcDbEntity
8
0
100
AcDbCircle
10
97.434327868899999
20
222.23914754100002
30
0
40
0.51000000000000512
210
0
220
0
230
1
0
CIRCLE
5
199
100
AcDbEntity
8
0
100
AcDbCircle
10
127.8243278689
20
156.14914754099999
30
0
40
1.5000000000000002
210
0
220
0
230
1
0
CIRCLE
5
200
100
AcDbEntity
8
0
100
AcDbCircle
10
121.11771500200001
20
188.14914754099999
30
0
40
1
210
0
220
0
230
1
0
CIRCLE
5
201
100
AcDbEntity
8
0
100
AcDbCircle
10
121.11771500200001
20
166.14914754099999
30
0
40
1
210
0
220
0
230
1
0
CIRCLE
5
202
100
AcDbEntity
8
0
100
AcDbCircle
10
91.530940735700014
20
166.14914754099999
30
0
40
1
210
0
220
0
230
1
0
CIRCLE
5
203
100
AcDbEntity
8
0
100
AcDbCircle
10
127.8243278689
20
199.14914754099999
30
0
40
1.5000000000000002
210
0
220
0
230
1
0
CIRCLE
5
204
100
AcDbEntity
8
0
100
AcDbCircle
10
84.824327868899999
20
199.14914754099999
30
0
40
1.5000000000000002
210
0
220
0
230
1
0
CIRCLE
5
205
100
AcDbEntity
8
0
100
AcDbCircle
10
84.824327868899999
20
156.14914754099999
30
0
40
1.5000000000000002
210
0
220
0
230
1
0
CIRCLE
5
206
100
AcDbEntity
8
0
100
AcDbCircle
10
91.530940735700014
20
188.14914754099999
30
0
40
1
210
0
220
0
230
1
0
CIRCLE
5
207
100
AcDbEntity
8
0
100
AcDbCircle
10
135.53432786889999
20
222.23914754100002
30
0
40
0.50999999999999091
210
0
220
0
230
1
0
ARC
5
208
100
AcDbEntity
8
0
100
AcDbCircle
10
151.1243278689
20
228.22914754099997
30
0
40
1.1999999999999922
210
0
220
0
230
1
100
AcDbArc
50
0
51
90
0
CIRCLE
5
209
100
AcDbEntity
8
0
100
AcDbCircle
10
138.07432786889999
20
217.15914754099998
30
0
40
0.51000000000001933
210
0
220
0
230
1
0
CIRCLE
5
210
100
AcDbEntity
8
0
100
AcDbCircle
10
138.07432786889999
20
219.699147541
30
0
40
0.51000000000001933
210
0
220
0
230
1
0
CIRCLE
5
211
100
AcDbEntity
8
0
100
AcDbCircle
10
138.07432786889999
20
222.23914754100002
30
0
40
0.51000000000001933
210
0
220
0
230
1
0
CIRCLE
5
212
100
AcDbEntity
8
0
100
AcDbCircle
10
74.574327868899999
20
217.15914754099998
30
0
40
0.51000000000001933
210
0
220
0
230
1
0
CIRCLE
5
213
100
AcDbEntity
8
0
100
AcDbCircle
10
77.114327868900006
20
217.15914754099998
30
0
40
0.51000000000000512
210
0
220
0
230
1
0
CIRCLE
5
214
100
AcDbEntity
8
0
100
AcDbCircle
10
79.654327868899998
20
217.15914754099998
30
0
40
0.50999999999997669
210
0
220
0
230
1
0
CIRCLE
5
215
100
AcDbEntity
8
0
100
AcDbCircle
10
82.194327868900018
20
217.15914754099998
30
0
40
0.51000000000001933
210
0
220
0
230
1
0
CIRCLE
5
216
100
AcDbEntity
8
0
100
AcDbCircle
10
84.73432786890001
20
217.15914754099998
30
0
40
0.50999999999997669
210
0
220
0
230
1
0
CIRCLE
5
217
100
AcDbEntity
8
0
100
AcDbCircle
10
87.274327868899988
20
217.15914754099998
30
0
40
0.51000000000001933
210
0
220
0
230
1
0
CIRCLE
5
218
100
AcDbEntity
8
0
100
AcDbCircle
10
89.814327868899994
20
217.15914754099998
30
0
40
0.50999999999997669
210
0
220
0
230
1
0
CIRCLE
5
219
100
AcDbEntity
8
0
100
AcDbCircle
10
92.3543278689
20
217.15914754099998
30
0
40
0.51000000000000512
210
0
220
0
230
1
0
CIRCLE
5
220
100
AcDbEntity
8
0
100
AcDbCircle
10
94.894327868899992
20
217.15914754099998
30
0
40
0.50999999999999091
210
0
220
0
230
1
0
CIRCLE
5
221
100
AcDbEntity
8
0
100
AcDbCircle
10
97.434327868899999
20
217.15914754099998
30
0
40
0.51000000000000512
210
0
220
0
230
1
0
CIRCLE
5
222
100
AcDbEntity
8
0
100
AcDbCircle
10
99.974327868900005
20
217.15914754099998
30
0
40
0.50999999999999091
210
0
220
0
230
1
0
CIRCLE
5
223
100
AcDbEntity
8
0
100
AcDbCircle
10
102.5143278689
20
217.15914754099998
30
0
40
0.51000000000000512
210
0
220
0
230
1
0
CIRCLE
5
224
100
AcDbEntity
8
0
100
AcDbCircle
10
105.05432786889999
20
217.15914754099998
30
0
40
0.50999999999997669
210
0
220
0
230
1
0
CIRCLE
5
225
100
AcDbEntity
8
0
100
AcDbCircle
10
107.59432786890001
20
217.15914754099998
30
0
40
0.51000000000001933
210
0
220
0
230
1
0
CIRCLE
5
226
100
AcDbEntity
8
0
100
AcDbCircle
10
110.1343278689
20
217.15914754099998
30
0
40
0.50999999999999091
210
0
220
0
230
1
0
CIRCLE
5
227
100
AcDbEntity
8
0
100
AcDbCircle
10
112.67432786889999
20
217.15914754099998
30
0
40
0.51000000000001933
210
0
220
0
230
1
0
CIRCLE
5
228
100
AcDbEntity
8
0
100
AcDbCircle
10
115.21432786890001
20
217.15914754099998
30
0
40
0.50999999999999091
210
0
220
0
230
1
0
CIRCLE
5
229
100
AcDbEntity
8
0
100
AcDbCircle
10
117.75432786890001
20
217.15914754099998
30
0
40
0.50999999999999091
210
0
220
0
230
1
0
CIRCLE
5
230
100
AcDbEntity
8
0
100
AcDbCircle
10
120.2943278689
20
217.15914754099998
30
0
40
0.51000000000000512
210
0
220
0
230
1
0
CIRCLE
5
231
100
AcDbEntity
8
0
100
AcDbCircle
10
122.8343278689
20
217.15914754099998
30
0
40
0.50999999999999091
210
0
220
0
230
1
0
CIRCLE
5
232
100
AcDbEntity
8
0
100
AcDbCircle
10
125.37432786890001
20
217.15914754099998
30
0
40
0.51000000000000512
210
0
220
0
230
1
0
CIRCLE
5
233
100
AcDbEntity
8
0
100
AcDbCircle
10
127.91432786889999
20
217.15914754099998
30
0
40
0.51000000000000512
210
0
220
0
230
1
0
CIRCLE
5
234
100
AcDbEntity
8
0
100
AcDbCircle
10
130.45432786889998
20
217.15914754099998
30
0
40
0.51000000000001933
210
0
220
0
230
1
0
CIRCLE
5
235
100
AcDbEntity
8
0
100
AcDbCircle
10
132.99432786890003
20
217.15914754099998
30
0
40
0.50999999999999091
210
0
220
0
230
1
0
CIRCLE
5
236
100
AcDbEntity
8
0
100
AcDbCircle
10
135.53432786889999
20
217.15914754099998
30
0
40
0.51000000000001933
210
0
220
0
230
1
0
CIRCLE
5
237
100
AcDbEntity
8
0
100
AcDbCircle
10
74.574327868899999
20
219.699147541
30
0
40
0.51000000000001933
210
0
220
0
230
1
0
CIRCLE
5
238
100
AcDbEntity
8
0
100
AcDbCircle
10
77.114327868900006
20
219.699147541
30
0
40
0.50999999999997669
210
0
220
0
230
1
0
CIRCLE
5
239
100
AcDbEntity
8
0
100
AcDbCircle
10
79.654327868899998
20
219.699147541
30
0
40
0.50999999999997669
210
0
220
0
230
1
0
CIRCLE
5
240
100
AcDbEntity
8
0
100
AcDbCircle
10
82.194327868900018
20
219.699147541
30
0
40
0.51000000000001933
210
0
220
0
230
1
0
CIRCLE
5
241
100
AcDbEntity
8
0
100
AcDbCircle
10
84.73432786890001
20
219.699147541
30
0
40
0.50999999999997669
210
0
220
0
230
1
0
CIRCLE
5
242
100
AcDbEntity
8
0
100
AcDbCircle
10
87.274327868899988
20
219.699147541
30
0
40
0.51000000000001933
210
0
220
0
230
1
0
CIRCLE
5
243
100
AcDbEntity
8
0
100
AcDbCircle
10
89.814327868899994
20
219.699147541
30
0
40
0.50999999999997669
210
0
220
0
230
1
0
CIRCLE
5
244
100
AcDbEntity
8
0
100
AcDbCircle
10
92.3543278689
20
219.699147541
30
0
40
0.51000000000000512
210
0
220
0
230
1
0
CIRCLE
5
245
100
AcDbEntity
8
0
100
AcDbCircle
10
94.894327868899992
20
219.699147541
30
0
40
0.50999999999999091
210
0
220
0
230
1
0
CIRCLE
5
246
100
AcDbEntity
8
0
100
AcDbCircle
10
97.434327868899999
20
219.699147541
30
0
40
0.51000000000000512
210
0
220
0
230
1
0
CIRCLE
5
247
100
AcDbEntity
8
0
100
AcDbCircle
10
99.974327868900005
20
219.699147541
30
0
40
0.50999999999999091
210
0
220
0
230
1
0
CIRCLE
5
248
100
AcDbEntity
8
0
100
AcDbCircle
10
102.5143278689
20
219.699147541
30
0
40
0.51000000000000512
210
0
220
0
230
1
0
CIRCLE
5
249
100
AcDbEntity
8
0
100
AcDbCircle
10
105.05432786889999
20
219.699147541
30
0
40
0.50999999999999091
210
0
220
0
230
1
0
CIRCLE
5
250
100
AcDbEntity
8
0
100
AcDbCircle
10
107.59432786890001
20
219.699147541
30
0
40
0.51000000000001933
210
0
220
0
230
1
0
CIRCLE
5
251
100
AcDbEntity
8
0
100
AcDbCircle
10
110.1343278689
20
219.699147541
30
0
40
0.50999999999999091
210
0
220
0
230
1
0
CIRCLE
5
252
100
AcDbEntity
8
0
100
AcDbCircle
10
112.67432786889999
20
219.699147541
30
0
40
0.51000000000001933
210
0
220
0
230
1
0
CIRCLE
5
253
100
AcDbEntity
8
0
100
AcDbCircle
10
115.21432786890001
20
219.699147541
30
0
40
0.50999999999999091
210
0
220
0
230
1
0
CIRCLE
5
254
100
AcDbEntity
8
0
100
AcDbCircle
10
117.75432786890001
20
219.699147541
30
0
40
0.50999999999999091
210
0
220
0
230
1
0
CIRCLE
5
255
100
AcDbEntity
8
0
100
AcDbCircle
10
120.2943278689
20
219.699147541
30
0
40
0.51000000000000512
210
0
220
0
230
1
0
CIRCLE
5
256
100
AcDbEntity
8
0
100
AcDbCircle
10
122.8343278689
20
219.699147541
30
0
40
0.50999999999999091
210
0
220
0
230
1
0
CIRCLE
5
257
100
AcDbEntity
8
0
100
AcDbCircle
10
125.37432786890001
20
219.699147541
30
0
40
0.51000000000000512
210
0
220
0
230
1
0
CIRCLE
5
258
100
AcDbEntity
8
0
100
AcDbCircle
10
127.91432786889999
20
219.699147541
30
0
40
0.51000000000000512
210
0
220
0
230
1
0
CIRCLE
5
259
100
AcDbEntity
8
0
100
AcDbCircle
10
130.45432786889998
20
219.699147541
30
0
40
0.51000000000001933
210
0
220
0
230
1
0
CIRCLE
5
260
100
AcDbEntity
8
0
100
AcDbCircle
10
132.99432786890003
20
219.699147541
30
0
40
0.50999999999999091
210
0
220
0
230
1
0
CIRCLE
5
261
100
AcDbEntity
8
0
100
AcDbCircle
10
135.53432786889999
20
219.699147541
30
0
40
0.51000000000001933
210
0
220
0
230
1
0
CIRCLE
5
262
100
AcDbEntity
8
0
100
AcDbCircle
10
74.574327868899999
20
222.23914754100002
30
0
40
0.51000000000001933
210
0
220
0
230
1
0
CIRCLE
5
263
100
AcDbEntity
8
0
100
AcDbCircle
10
77.114327868900006
20
222.23914754100002
30
0
40
0.50999999999997669
210
0
220
0
230
1
0
CIRCLE
5
264
100
AcDbEntity
8
0
100
AcDbCircle
10
79.654327868899998
20
222.23914754100002
30
0
40
0.50999999999997669
210
0
220
0
230
1
0
CIRCLE
5
265
100
AcDbEntity
8
0
100
AcDbCircle
10
82.194327868900018
20
222.23914754100002
30
0
40
0.51000000000001933
210
0
220
0
230
1
0
CIRCLE
5
266
100
AcDbEntity
8
0
100
AcDbCircle
10
84.73432786890001
20
222.23914754100002
30
0
40
0.50999999999997669
210
0
220
0
230
1
0
CIRCLE
5
267
100
AcDbEntity
8
0
100
AcDbCircle
10
87.274327868899988
20
222.23914754100002
30
0
40
0.51000000000001933
210
0
220
0
230
1
0
CIRCLE
5
268
100
AcDbEntity
8
0
100
AcDbCircle
10
89.814327868899994
20
222.23914754100002
30
0
40
0.50999999999997669
210
0
220
0
230
1
0
CIRCLE
5
269
100
AcDbEntity
8
0
100
AcDbCircle
10
92.3543278689
20
222.23914754100002
30
0
40
0.51000000000000512
210
0
220
0
230
1
0
CIRCLE
5
270
100
AcDbEntity
8
0
100
AcDbCircle
10
94.894327868899992
20
222.23914754100002
30
0
40
0.50999999999999091
210
0
220
0
230
1
0
CIRCLE
5
271
100
AcDbEntity
8
0
100
AcDbCircle
10
112.67432786889999
20
222.23914754100002
30
0
40
0.51000000000001933
210
0
220
0
230
1
0
LINE
5
272
100
AcDbEntity
8
0
100
AcDbLine
10
145.32432786889999
20
213.42914754100002
30
0
11
145.32432786889999
21
153.42914754100002
31
0
0
LINE
5
273
100
AcDbEntity
8
0
100
AcDbLine
10
65.324327868899999
20
172.92914754099999
30
0
11
125.3243278689
21
172.92914754099999
31
0
0
LINE
5
274
100
AcDbEntity
8
0
100
AcDbLine
10
62.824327868900014
20
191.22914754099997
30
0
11
62.824327868900014
21
175.62914754100001
31
0
0
ARC
5
275
100
AcDbEntity
8
0
100
AcDbCircle
10
61.624327868900011
20
175.62914754100001
30
0
40
1.2000000000000455
210
0
220
0
230
1
100
AcDbArc
50
-90.000000000002032
51
0
0
LINE
5
276
100
AcDbEntity
8
0
100
AcDbLine
10
61.624327868899968
20
174.42914754099996
30
0
11
61.524327868900059
21
174.42914754099996
31
0
0
ARC
5
277
100
AcDbEntity
8
0
100
AcDbCircle
10
61.524327868900016
20
173.22914754099995
30
0
40
1.2000000000000099
210
0
220
-0
230
1
100
AcDbArc
50
89.999999999997954
51
180
0
ENDSEC
0
SECTION
2
OBJECTS
0
DICTIONARY
5
C
100
AcDbDictionary
3
ACAD_GROUP
350
D
3
ACAD_MLINESTYLE
350
17
0
DICTIONARY
5
D
100
AcDbDictionary
0
DICTIONARY
5
1A
330
C
100
AcDbDictionary
0
DICTIONARY
5
17
100
AcDbDictionary
0
ENDSEC
0
EOF
